<svg width="178" height="53" viewBox="0 0 178 53" fill="none" xmlns="http://www.w3.org/2000/svg">
<g id="Group">
<path id="BG" d="M170.604 52.1553H6.63961C3.03405 52.1553 0.0810547 49.2761 0.0810547 45.7607V7.39312C0.0810547 3.87769 3.03405 0.998524 6.63961 0.998524H170.604C174.209 0.998524 177.162 3.87769 177.162 7.39312V45.7607C177.162 49.2761 174.209 52.1553 170.604 52.1553Z" fill="white"/>
<path id="Border" d="M170.604 2.02326C173.64 2.02326 176.111 4.43242 176.111 7.39312V45.7607C176.111 48.7214 173.64 51.1305 170.604 51.1305H6.63961C3.603 51.1305 1.13206 48.7214 1.13206 45.7607V7.39312C1.13206 4.43242 3.603 2.02326 6.63961 2.02326H170.604ZM170.604 0.998524H6.63961C3.03405 0.998524 0.0810547 3.87769 0.0810547 7.39312V45.7607C0.0810547 49.2761 3.03405 52.1553 6.63961 52.1553H170.604C174.209 52.1553 177.162 49.2761 177.162 45.7607V7.39312C177.162 3.87769 174.209 0.998524 170.604 0.998524Z" fill="#A6A6A6"/>
<g id="Icon">
<path id="Vector" d="M12.7841 10.6399C12.3988 11.0331 12.1758 11.6454 12.1758 12.4383V40.7216C12.1758 41.5146 12.3988 42.1268 12.7841 42.5201L12.8792 42.6064L29.1346 26.7638V26.3898L12.8792 10.5471L12.7841 10.6399Z" fill="black"/>
<path id="Vector_2" d="M36.515 32.0479L31.1025 26.7643V26.3902L36.5215 21.1067L36.6429 21.1754L43.0604 24.7356C44.8919 25.746 44.8919 27.4086 43.0604 28.4253L36.6429 31.9791L36.515 32.0479Z" fill="black"/>
<path id="Vector_3" d="M35.6584 32.9624L30.1181 27.5606L13.7676 43.5039C14.3759 44.1273 15.3679 44.2025 16.4959 43.579L35.6584 32.9624Z" fill="black"/>
<path id="Vector_4" d="M35.6584 20.1909L16.4959 9.57432C15.3679 8.95724 14.3759 9.03238 13.7676 9.65585L30.1181 25.5928L35.6584 20.1909Z" fill="black"/>
</g>
<g id="GET IT ON">
<path id="G" d="M62.2788 14.1004C62.2788 15.1683 61.9508 16.0236 61.3048 16.6615C60.5621 17.4176 59.5947 17.7981 58.4092 17.7981C57.2762 17.7981 56.3088 17.4112 55.5153 16.6487C54.72 15.8749 54.3232 14.9253 54.3232 13.7887C54.3232 12.6521 54.72 11.7025 55.5153 10.9351C56.3088 10.1662 57.2762 9.7793 58.4092 9.7793C58.9733 9.7793 59.5111 9.8928 60.0243 10.1038C60.5358 10.3164 60.9523 10.6042 61.254 10.9591L60.5686 11.6337C60.0423 11.0278 59.3258 10.7289 58.4092 10.7289C57.5828 10.7289 56.8663 11.0103 56.258 11.5778C55.6563 12.1469 55.3546 12.8839 55.3546 13.7887C55.3546 14.6935 55.6563 15.4369 56.258 16.006C56.8663 16.5672 57.5828 16.8549 58.4092 16.8549C59.2864 16.8549 60.0243 16.5672 60.6063 15.9996C60.99 15.624 61.2081 15.106 61.2655 14.4442H58.4092V13.5201H62.2197C62.2657 13.72 62.2788 13.9134 62.2788 14.1004Z" fill="black" stroke="black" stroke-width="0.0524685" stroke-miterlimit="10"/>
<path id="E" d="M68.3241 10.8967H64.7447V13.3266H67.9716V14.2506H64.7447V16.6806H68.3241V17.6222H63.7314V9.95508H68.3241V10.8967Z" fill="black" stroke="black" stroke-width="0.0524685" stroke-miterlimit="10"/>
<path id="T" d="M72.5906 17.6222H71.5773V10.8967H69.3818V9.95508H74.7877V10.8967H72.5906V17.6222Z" fill="black" stroke="black" stroke-width="0.0524685" stroke-miterlimit="10"/>
<path id="I" d="M78.7002 17.6222V9.95508H79.7119V17.6222H78.7002Z" fill="black" stroke="black" stroke-width="0.0524685" stroke-miterlimit="10"/>
<path id="T_2" d="M84.1961 17.6222H83.191V10.8967H80.9873V9.95508H86.3997V10.8967H84.1961V17.6222Z" fill="black" stroke="black" stroke-width="0.0524685" stroke-miterlimit="10"/>
<path id="O" d="M96.6339 16.6359C95.8583 17.4112 94.8975 17.7981 93.7514 17.7981C92.5987 17.7981 91.6379 17.4112 90.8624 16.6359C90.0884 15.8622 89.7031 14.9126 89.7031 13.7887C89.7031 12.6649 90.0884 11.7153 90.8624 10.9415C91.6379 10.1662 92.5987 9.7793 93.7514 9.7793C94.8909 9.7793 95.8518 10.1662 96.6273 10.9479C97.4078 11.728 97.7931 12.6713 97.7931 13.7887C97.7931 14.9126 97.4078 15.8622 96.6339 16.6359ZM91.6117 15.9932C92.1954 16.5672 92.9053 16.8549 93.7514 16.8549C94.5909 16.8549 95.3074 16.5672 95.8846 15.9932C96.4666 15.4193 96.7618 14.6824 96.7618 13.7887C96.7618 12.8951 96.4666 12.1581 95.8846 11.5842C95.3074 11.0103 94.5909 10.7225 93.7514 10.7225C92.9053 10.7225 92.1954 11.0103 91.6117 11.5842C91.0296 12.1581 90.7345 12.8951 90.7345 13.7887C90.7345 14.6824 91.0296 15.4193 91.6117 15.9932Z" fill="black" stroke="black" stroke-width="0.0524685" stroke-miterlimit="10"/>
<path id="N" d="M99.2148 17.6222V9.95508H100.445L104.268 15.918H104.312L104.268 14.4441V9.95508H105.28V17.6222H104.224L100.22 11.3651H100.176L100.22 12.8454V17.6222H99.2148Z" fill="black" stroke="black" stroke-width="0.0524685" stroke-miterlimit="10"/>
</g>
<g id="Google Play">
<path id="Google Play_2" d="M89.4539 28.8174C86.373 28.8174 83.8562 31.1035 83.8562 34.2576C83.8562 37.3862 86.373 39.6962 89.4539 39.6962C92.5413 39.6962 95.0582 37.3862 95.0582 34.2576C95.0582 31.1035 92.5413 28.8174 89.4539 28.8174ZM89.4539 37.554C87.7634 37.554 86.3091 36.1936 86.3091 34.2576C86.3091 32.2961 87.7634 30.9596 89.4539 30.9596C91.1444 30.9596 92.6053 32.2961 92.6053 34.2576C92.6053 36.1936 91.1444 37.554 89.4539 37.554ZM77.2402 28.8174C74.1528 28.8174 71.6425 31.1035 71.6425 34.2576C71.6425 37.3862 74.1528 39.6962 77.2402 39.6962C80.326 39.6962 82.838 37.3862 82.838 34.2576C82.838 31.1035 80.326 28.8174 77.2402 28.8174ZM77.2402 37.554C75.5481 37.554 74.0888 36.1936 74.0888 34.2576C74.0888 32.2961 75.5481 30.9596 77.2402 30.9596C78.9307 30.9596 80.3851 32.2961 80.3851 34.2576C80.3851 36.1936 78.9307 37.554 77.2402 37.554ZM62.7065 30.4848V32.7964H68.3681C68.2025 34.0882 67.7598 35.0377 67.081 35.6996C66.2546 36.4989 64.9675 37.3862 62.7065 37.3862C59.2222 37.3862 56.4939 34.6445 56.4939 31.2474C56.4939 27.8502 59.2222 25.1085 62.7065 25.1085C64.5904 25.1085 65.9612 25.8263 66.9728 26.7568L68.6436 25.1277C67.2286 23.8104 65.3463 22.7985 62.7065 22.7985C57.9286 22.7985 53.9131 26.5889 53.9131 31.2474C53.9131 35.9058 57.9286 39.6962 62.7065 39.6962C65.2889 39.6962 67.2286 38.8713 68.7535 37.3238C70.316 35.8003 70.803 33.6581 70.803 31.9284C70.803 31.3912 70.7571 30.8972 70.6751 30.4848H62.7065ZM122.137 32.2769C121.676 31.0603 120.255 28.8174 117.359 28.8174C114.49 28.8174 112.101 31.0219 112.101 34.2576C112.101 37.3046 114.465 39.6962 117.634 39.6962C120.197 39.6962 121.676 38.1727 122.284 37.2854L120.382 36.0497C119.748 36.9545 118.884 37.554 117.634 37.554C116.393 37.554 115.503 36.9993 114.932 35.9058L122.394 32.8956L122.137 32.2769ZM114.529 34.0882C114.465 31.9907 116.2 30.9164 117.443 30.9164C118.416 30.9164 119.243 31.3912 119.518 32.0707L114.529 34.0882ZM108.464 39.3653H110.917V23.3788H108.464V39.3653ZM104.447 30.0292H104.365C103.814 29.3929 102.763 28.8174 101.431 28.8174C98.6375 28.8174 96.083 31.209 96.083 34.2752C96.083 37.3238 98.6375 39.6962 101.431 39.6962C102.763 39.6962 103.814 39.1159 104.365 38.4605H104.447V39.2406C104.447 41.3204 103.307 42.4379 101.469 42.4379C99.9705 42.4379 99.0409 41.3828 98.6572 40.4955L96.524 41.3636C97.1389 42.8056 98.767 44.5801 101.469 44.5801C104.345 44.5801 106.772 42.9303 106.772 38.9161V29.1483H104.447V30.0292ZM101.641 37.554C99.9509 37.554 98.5359 36.1744 98.5359 34.2752C98.5359 32.3584 99.9509 30.9596 101.641 30.9596C103.307 30.9596 104.621 32.3584 104.621 34.2752C104.621 36.1744 103.307 37.554 101.641 37.554ZM133.621 23.3788H127.754V39.3653H130.201V33.308H133.621C136.338 33.308 139.002 31.3912 139.002 28.3426C139.002 25.2956 136.331 23.3788 133.621 23.3788ZM133.685 31.0843H130.201V25.6025H133.685C135.511 25.6025 136.554 27.0813 136.554 28.3426C136.554 29.58 135.511 31.0843 133.685 31.0843ZM148.807 28.787C147.04 28.787 145.202 29.548 144.446 31.2346L146.617 32.1218C147.084 31.2346 147.943 30.9468 148.851 30.9468C150.121 30.9468 151.408 31.6902 151.427 33.0027V33.1705C150.985 32.9211 150.037 32.5519 148.871 32.5519C146.533 32.5519 144.151 33.8068 144.151 36.1488C144.151 38.291 146.066 39.6706 148.219 39.6706C149.865 39.6706 150.773 38.9464 151.344 38.104H151.427V39.3397H153.79V33.2073C153.79 30.3729 151.619 28.787 148.807 28.787ZM148.512 37.5476C147.712 37.5476 146.597 37.1608 146.597 36.1936C146.597 34.9562 147.987 34.4814 149.191 34.4814C150.268 34.4814 150.773 34.7132 151.427 35.0186C151.235 36.4989 149.929 37.5476 148.512 37.5476ZM162.398 29.1371L159.586 36.0673H159.503L156.595 29.1371H153.957L158.325 38.8217L155.833 44.2108H158.389L165.12 29.1371H162.398ZM140.347 39.3653H142.8V23.3788H140.347V39.3653Z" fill="black"/>
</g>
</g>
</svg>
