<svg width="178" height="52" viewBox="0 0 178 52" fill="none" xmlns="http://www.w3.org/2000/svg">
<g id="Group">
<path id="BG" d="M176.097 45.4139C176.097 48.1401 173.843 50.3484 171.054 50.3484H6.0326C3.24561 50.3484 0.983398 48.1401 0.983398 45.4139V6.063C0.983398 3.33808 3.24561 1.12207 6.0326 1.12207H171.053C173.843 1.12207 176.096 3.33808 176.096 6.063L176.097 45.4139Z" fill="white"/>
<path id="Border" d="M170.523 1.18243C173.559 1.18243 176.03 3.5916 176.03 6.5523V44.9199C176.03 47.8806 173.559 50.2897 170.523 50.2897H6.55856C3.52195 50.2897 1.05101 47.8806 1.05101 44.9199V6.5523C1.05101 3.5916 3.52195 1.18243 6.55856 1.18243H170.523ZM170.523 0.157703H6.55856C2.95299 0.157703 0 3.03687 0 6.5523V44.9199C0 48.4353 2.95299 51.3145 6.55856 51.3145H170.523C174.128 51.3145 177.081 48.4353 177.081 44.9199V6.5523C177.081 3.03687 174.128 0.157703 170.523 0.157703Z" fill="#A6A6A6"/>
<g id="Icon">
<g id="Vector">
<path d="M39.5193 25.4595C39.4812 21.3375 42.9809 19.3322 43.1409 19.2388C41.1589 16.4214 38.0869 16.0364 37.0073 16.0057C34.4272 15.741 31.9244 17.511 30.6101 17.511C29.2695 17.511 27.2456 16.0313 25.0642 16.0748C22.2571 16.117 19.6311 17.7016 18.1908 20.1622C15.2185 25.1794 17.4353 32.5524 20.283 36.6078C21.7075 38.594 23.3721 40.8116 25.5508 40.7336C27.6824 40.6479 28.4786 39.4087 31.0508 39.4087C33.5995 39.4087 34.3472 40.7336 36.5692 40.6837C38.8568 40.6479 40.2971 38.6886 41.6718 36.6846C43.318 34.4081 43.9791 32.1661 44.0053 32.051C43.9515 32.0331 39.5625 30.4 39.5193 25.4595Z" fill="black"/>
<path d="M35.3218 13.3379C36.4682 11.94 37.2526 10.0383 37.0349 8.1084C35.3756 8.18002 33.3004 9.22745 32.1055 10.5946C31.0482 11.7994 30.1038 13.774 30.3478 15.631C32.2117 15.7666 34.1255 14.714 35.3218 13.3379Z" fill="black"/>
</g>
</g>
<g id="Download on the">
<path id="D" d="M64.3402 12.9583C64.3402 14.4636 63.8771 15.5967 62.9524 16.3577C62.0958 17.0598 60.8786 17.4115 59.3019 17.4115C58.5201 17.4115 57.8511 17.3783 57.291 17.3117V9.08702C58.0216 8.97192 58.8087 8.91309 59.6587 8.91309C61.1606 8.91309 62.2926 9.23154 63.056 9.86844C63.9112 10.5885 64.3402 11.618 64.3402 12.9583ZM62.8907 12.9954C62.8907 12.0196 62.6258 11.2714 62.0958 10.7496C61.5659 10.2291 60.792 9.96819 59.7728 9.96819C59.3399 9.96819 58.9713 9.99633 58.6657 10.0552V16.3078C58.8349 16.3334 59.1445 16.3449 59.5944 16.3449C60.6464 16.3449 61.4583 16.0597 62.0302 15.4893C62.6021 14.9189 62.8907 14.0876 62.8907 12.9954Z" fill="black"/>
<path id="o" d="M72.0259 14.2729C72.0259 15.2001 71.7544 15.9597 71.2113 16.5557C70.642 17.1683 69.8878 17.474 68.946 17.474C68.0383 17.474 67.3155 17.1811 66.7764 16.5928C66.2386 16.0058 65.9697 15.2653 65.9697 14.3726C65.9697 13.439 66.2465 12.6729 66.8027 12.0782C67.3588 11.4835 68.1065 11.1855 69.0483 11.1855C69.956 11.1855 70.6853 11.4784 71.2376 12.0654C71.7622 12.6358 72.0259 13.3725 72.0259 14.2729ZM70.6001 14.3163C70.6001 13.76 70.4768 13.283 70.2315 12.8852C69.9429 12.4044 69.5323 12.1639 68.9985 12.1639C68.4462 12.1639 68.0265 12.4044 67.7379 12.8852C67.4913 13.283 67.3693 13.7677 67.3693 14.3406C67.3693 14.897 67.4926 15.374 67.7379 15.7717C68.0357 16.2526 68.4502 16.4931 68.9854 16.4931C69.51 16.4931 69.9219 16.2488 70.2184 15.759C70.4728 15.3535 70.6001 14.8727 70.6001 14.3163Z" fill="black"/>
<path id="w" d="M82.3301 11.3086L80.3953 17.3374H79.1361L78.3346 14.7195C78.1313 14.0659 77.966 13.4163 77.8375 12.7717H77.8125C77.6932 13.4342 77.5279 14.0826 77.3154 14.7195L76.4641 17.3374H75.1904L73.3711 11.3086H74.7838L75.4829 14.1747C75.6522 14.8525 75.7912 15.4983 75.9027 16.1097H75.9276C76.0299 15.6058 76.1991 14.9637 76.4379 14.1874L77.3154 11.3099H78.4356L79.2764 14.1261C79.4797 14.8128 79.645 15.474 79.7722 16.1109H79.8103C79.9034 15.4907 80.0438 14.8295 80.23 14.1261L80.9803 11.3099H82.3301V11.3086Z" fill="black"/>
<path id="n" d="M89.4571 17.3371H88.0824V13.884C88.0824 12.8199 87.6679 12.2879 86.8363 12.2879C86.4283 12.2879 86.0991 12.4337 85.8433 12.7266C85.5902 13.0194 85.4616 13.3648 85.4616 13.7599V17.3358H84.0869V13.031C84.0869 12.5015 84.0699 11.9273 84.0371 11.3057H85.2452L85.3095 12.2483H85.3475C85.5075 11.9554 85.7463 11.7137 86.0598 11.5206C86.4323 11.2955 86.8494 11.1816 87.3059 11.1816C87.883 11.1816 88.3631 11.3632 88.7448 11.7277C89.2197 12.1741 89.4571 12.8404 89.4571 13.7254V17.3371Z" fill="black"/>
<path id="l" d="M93.2474 17.3371H91.874V8.54199H93.2474V17.3371Z" fill="black"/>
<path id="o_2" d="M101.341 14.2729C101.341 15.2001 101.07 15.9597 100.527 16.5557C99.9575 17.1683 99.2019 17.474 98.2614 17.474C97.3524 17.474 96.6297 17.1811 96.0919 16.5928C95.5541 16.0058 95.2852 15.2653 95.2852 14.3726C95.2852 13.439 95.5619 12.6729 96.1181 12.0782C96.6743 11.4835 97.4219 11.1855 98.3624 11.1855C99.2714 11.1855 99.9994 11.4784 100.553 12.0654C101.078 12.6358 101.341 13.3725 101.341 14.2729ZM99.9142 14.3163C99.9142 13.76 99.7909 13.283 99.5456 12.8852C99.2583 12.4044 98.8465 12.1639 98.3139 12.1639C97.7604 12.1639 97.3406 12.4044 97.0533 12.8852C96.8067 13.283 96.6848 13.7677 96.6848 14.3406C96.6848 14.897 96.8081 15.374 97.0533 15.7717C97.3511 16.2526 97.7656 16.4931 98.3008 16.4931C98.8255 16.4931 99.236 16.2488 99.5325 15.759C99.7883 15.3535 99.9142 14.8727 99.9142 14.3163Z" fill="black"/>
<path id="a" d="M107.994 17.3371H106.76L106.658 16.6427H106.62C106.197 17.1965 105.595 17.474 104.813 17.474C104.23 17.474 103.757 17.2911 103.402 16.9279C103.079 16.5979 102.918 16.1874 102.918 15.7001C102.918 14.9635 103.233 14.402 103.866 14.0132C104.499 13.6244 105.388 13.4339 106.533 13.4428V13.3303C106.533 12.5361 106.105 12.1396 105.249 12.1396C104.639 12.1396 104.101 12.2893 103.637 12.586L103.357 11.7061C103.932 11.3595 104.642 11.1855 105.478 11.1855C107.094 11.1855 107.905 12.0168 107.905 13.6794V15.8996C107.905 16.502 107.935 16.9816 107.994 17.3371ZM106.567 15.2653V14.3355C105.051 14.3099 104.293 14.7154 104.293 15.5505C104.293 15.8651 104.379 16.1004 104.556 16.2577C104.733 16.415 104.959 16.4931 105.228 16.4931C105.53 16.4931 105.812 16.3997 106.069 16.2143C106.327 16.0275 106.486 15.7909 106.545 15.5006C106.559 15.4354 106.567 15.3561 106.567 15.2653Z" fill="black"/>
<path id="d" d="M115.805 17.3371H114.585L114.521 16.369H114.483C114.093 17.1056 113.43 17.474 112.497 17.474C111.752 17.474 111.131 17.1888 110.64 16.6184C110.148 16.048 109.902 15.3075 109.902 14.3982C109.902 13.4223 110.169 12.632 110.704 12.0283C111.222 11.4656 111.857 11.1842 112.612 11.1842C113.443 11.1842 114.024 11.4566 114.354 12.0027H114.381V8.54199H115.756V15.7129C115.756 16.2999 115.772 16.8409 115.805 17.3371ZM114.381 14.7946V13.7894C114.381 13.6155 114.367 13.4748 114.342 13.3674C114.265 13.0451 114.098 12.7739 113.845 12.5552C113.59 12.3365 113.281 12.2266 112.926 12.2266C112.413 12.2266 112.012 12.4248 111.716 12.8225C111.424 13.2203 111.276 13.728 111.276 14.3483C111.276 14.9443 111.416 15.4277 111.698 15.7999C111.996 16.1963 112.397 16.3946 112.9 16.3946C113.351 16.3946 113.712 16.2296 113.986 15.8983C114.251 15.5927 114.381 15.2243 114.381 14.7946Z" fill="black"/>
<path id="o_3" d="M127.562 14.2729C127.562 15.2001 127.291 15.9597 126.747 16.5557C126.178 17.1683 125.425 17.474 124.482 17.474C123.576 17.474 122.853 17.1811 122.313 16.5928C121.775 16.0058 121.506 15.2653 121.506 14.3726C121.506 13.439 121.783 12.6729 122.339 12.0782C122.895 11.4835 123.643 11.1855 124.586 11.1855C125.492 11.1855 126.223 11.4784 126.774 12.0654C127.298 12.6358 127.562 13.3725 127.562 14.2729ZM126.138 14.3163C126.138 13.76 126.014 13.283 125.769 12.8852C125.479 12.4044 125.07 12.1639 124.535 12.1639C123.984 12.1639 123.564 12.4044 123.274 12.8852C123.027 13.283 122.905 13.7677 122.905 14.3406C122.905 14.897 123.029 15.374 123.274 15.7717C123.572 16.2526 123.986 16.4931 124.521 16.4931C125.046 16.4931 125.459 16.2488 125.756 15.759C126.009 15.3535 126.138 14.8727 126.138 14.3163Z" fill="black"/>
<path id="n_2" d="M134.954 17.3371H133.58V13.884C133.58 12.8199 133.166 12.2879 132.333 12.2879C131.925 12.2879 131.596 12.4337 131.341 12.7266C131.087 13.0194 130.96 13.3648 130.96 13.7599V17.3358H129.584V13.031C129.584 12.5015 129.568 11.9273 129.535 11.3057H130.742L130.806 12.2483H130.844C131.006 11.9554 131.244 11.7137 131.557 11.5206C131.93 11.2955 132.346 11.1816 132.804 11.1816C133.38 11.1816 133.86 11.3632 134.242 11.7277C134.718 12.1741 134.954 12.8404 134.954 13.7254V17.3371Z" fill="black"/>
<path id="t" d="M144.205 12.312H142.692V15.2408C142.692 15.9851 142.961 16.3573 143.493 16.3573C143.74 16.3573 143.944 16.3368 144.106 16.2946L144.141 17.3113C143.87 17.4111 143.513 17.461 143.073 17.461C142.53 17.461 142.108 17.2998 141.802 16.9775C141.495 16.6553 141.343 16.113 141.343 15.352V12.312H140.439V11.3081H141.343V10.2031L142.69 9.80664V11.3068H144.204V12.312H144.205Z" fill="black"/>
<path id="h" d="M151.482 17.3371H150.106V13.9096C150.106 12.8289 149.692 12.2879 148.862 12.2879C148.224 12.2879 147.789 12.6013 147.55 13.228C147.509 13.3597 147.486 13.5208 147.486 13.7101V17.3358H146.112V8.54199H147.486V12.1754H147.512C147.945 11.5142 148.565 11.1842 149.369 11.1842C149.939 11.1842 150.409 11.3658 150.783 11.7303C151.249 12.1844 151.482 12.8596 151.482 13.7523V17.3371Z" fill="black"/>
<path id="e" d="M158.99 14.0373C158.99 14.2778 158.971 14.4798 158.938 14.6448H154.816C154.834 15.2408 155.031 15.6948 155.413 16.0094C155.761 16.2908 156.211 16.4315 156.762 16.4315C157.372 16.4315 157.928 16.3368 158.429 16.1463L158.645 17.0773C158.058 17.3254 157.368 17.4495 156.569 17.4495C155.612 17.4495 154.858 17.1745 154.312 16.6246C153.764 16.0746 153.492 15.3367 153.492 14.4108C153.492 13.5015 153.745 12.7443 154.256 12.1407C154.788 11.4961 155.508 11.1738 156.417 11.1738C157.307 11.1738 157.982 11.4961 158.439 12.1407C158.807 12.6523 158.99 13.2853 158.99 14.0373ZM157.678 13.6907C157.688 13.293 157.598 12.9502 157.412 12.6612C157.173 12.289 156.81 12.1023 156.318 12.1023C155.869 12.1023 155.503 12.2839 155.224 12.6484C154.995 12.9387 154.86 13.2853 154.816 13.6907H157.678Z" fill="black"/>
</g>
<g id="App Store">
<path id="A" d="M70.366 40.4486H67.3871L65.7553 35.4493H60.0835L58.5291 40.4486H55.6289L61.2483 23.4287H64.7191L70.366 40.4486ZM65.2634 33.3518L63.7878 28.9076C63.6317 28.4536 63.3391 27.3844 62.9076 25.7014H62.8551C62.6833 26.4252 62.4065 27.4944 62.0261 28.9076L60.5767 33.3518H65.2634Z" fill="black"/>
<path id="p" d="M84.8168 34.1621C84.8168 36.2493 84.2384 37.8991 83.0814 39.1102C82.0452 40.1884 80.7584 40.7268 79.2224 40.7268C77.5644 40.7268 76.3733 40.1462 75.648 38.9849H75.5955V45.4498H72.7989V32.2169C72.7989 30.9047 72.7635 29.558 72.6953 28.1768H75.1548L75.3109 30.122H75.3633C76.296 28.6563 77.7113 27.9248 79.6107 27.9248C81.0955 27.9248 82.3351 28.4965 83.3267 29.6411C84.321 30.787 84.8168 32.2936 84.8168 34.1621ZM81.9678 34.2618C81.9678 33.0673 81.6923 32.0826 81.1388 31.3075C80.5341 30.4993 79.7221 30.0951 78.7043 30.0951C78.0143 30.0951 77.3873 30.3202 76.8272 30.764C76.2658 31.2116 75.8985 31.7961 75.7267 32.52C75.6401 32.8576 75.5968 33.1338 75.5968 33.3513V35.3975C75.5968 36.2902 75.8775 37.0435 76.4389 37.6587C77.0003 38.2738 77.7297 38.5808 78.6269 38.5808C79.6802 38.5808 80.5 38.1843 81.0863 37.3939C81.674 36.6023 81.9678 35.5587 81.9678 34.2618Z" fill="black"/>
<path id="p_2" d="M99.295 34.1621C99.295 36.2493 98.7166 37.8991 97.5583 39.1102C96.5234 40.1884 95.2366 40.7268 93.7006 40.7268C92.0426 40.7268 90.8515 40.1462 90.1275 38.9849H90.075V45.4498H87.2784V32.2169C87.2784 30.9047 87.243 29.558 87.1748 28.1768H89.6343L89.7904 30.122H89.8428C90.7741 28.6563 92.1895 27.9248 94.0902 27.9248C95.5737 27.9248 96.8133 28.4965 97.8075 29.6411C98.7979 30.787 99.295 32.2936 99.295 34.1621ZM96.446 34.2618C96.446 33.0673 96.1692 32.0826 95.6157 31.3075C95.011 30.4993 94.2016 30.0951 93.1824 30.0951C92.4912 30.0951 91.8655 30.3202 91.3041 30.764C90.7427 31.2116 90.3767 31.7961 90.2049 32.52C90.1196 32.8576 90.075 33.1338 90.075 33.3513V35.3975C90.075 36.2902 90.3557 37.0435 90.9145 37.6587C91.4759 38.2725 92.2052 38.5808 93.1051 38.5808C94.1584 38.5808 94.9782 38.1843 95.5645 37.3939C96.1522 36.6023 96.446 35.5587 96.446 34.2618Z" fill="black"/>
<path id="S" d="M115.481 35.676C115.481 37.1237 114.965 38.3016 113.93 39.2109C112.793 40.2047 111.21 40.7009 109.175 40.7009C107.297 40.7009 105.791 40.3479 104.651 39.6407L105.299 37.368C106.527 38.0919 107.874 38.4551 109.342 38.4551C110.395 38.4551 111.215 38.2223 111.804 37.7594C112.39 37.2964 112.683 36.6748 112.683 35.8998C112.683 35.2092 112.442 34.6273 111.958 34.1554C111.476 33.6834 110.672 33.2448 109.549 32.8394C106.493 31.728 104.966 30.0999 104.966 27.959C104.966 26.5599 105.501 25.4127 106.573 24.52C107.641 23.626 109.065 23.1797 110.847 23.1797C112.435 23.1797 113.755 23.4495 114.808 23.988L114.109 26.2107C113.125 25.6889 112.013 25.428 110.768 25.428C109.784 25.428 109.015 25.6646 108.465 26.1353C107.999 26.556 107.765 27.0689 107.765 27.6764C107.765 28.3491 108.032 28.9054 108.567 29.3428C109.032 29.7469 109.879 30.1843 111.106 30.6562C112.608 31.2458 113.711 31.9352 114.421 32.7255C115.128 33.5134 115.481 34.4994 115.481 35.676Z" fill="black"/>
<path id="t_2" d="M124.727 30.2223H121.645V36.1808C121.645 37.6963 122.188 38.4535 123.276 38.4535C123.776 38.4535 124.191 38.4112 124.519 38.3268L124.596 40.3974C124.045 40.5982 123.32 40.6992 122.421 40.6992C121.317 40.6992 120.454 40.3706 119.831 39.7145C119.21 39.0571 118.898 37.9547 118.898 36.4059V30.2198H117.062V28.1735H118.898V25.9264L121.645 25.1182V28.1735H124.727V30.2223Z" fill="black"/>
<path id="o_4" d="M138.635 34.2117C138.635 36.0981 138.082 37.6468 136.977 38.858C135.819 40.1049 134.282 40.7265 132.365 40.7265C130.519 40.7265 129.048 40.1292 127.952 38.9347C126.855 37.7402 126.307 36.2324 126.307 34.415C126.307 32.5133 126.871 30.9555 128.003 29.7444C129.132 28.532 130.656 27.9258 132.573 27.9258C134.42 27.9258 135.906 28.523 137.027 29.7188C138.1 30.8788 138.635 32.3764 138.635 34.2117ZM135.734 34.2999C135.734 33.1681 135.486 32.1974 134.984 31.3878C134.397 30.4082 133.559 29.9196 132.473 29.9196C131.349 29.9196 130.495 30.4094 129.909 31.3878C129.406 32.1986 129.158 33.1847 129.158 34.3511C129.158 35.4829 129.406 36.4536 129.909 37.2619C130.513 38.2415 131.358 38.7301 132.448 38.7301C133.516 38.7301 134.354 38.2313 134.959 37.2363C135.474 36.4114 135.734 35.4305 135.734 34.2999Z" fill="black"/>
<path id="r" d="M147.726 30.5747C147.449 30.5248 147.154 30.4993 146.844 30.4993C145.86 30.4993 145.1 30.8612 144.564 31.5863C144.099 32.2258 143.865 33.0341 143.865 34.0099V40.4493H141.07L141.096 32.0416C141.096 30.6272 141.061 29.3393 140.991 28.178H143.427L143.529 30.5261H143.607C143.902 29.7191 144.368 29.0694 145.005 28.5822C145.628 28.1435 146.301 27.9248 147.026 27.9248C147.285 27.9248 147.518 27.9427 147.726 27.9747V30.5747Z" fill="black"/>
<path id="e_2" d="M160.233 33.732C160.233 34.2205 160.2 34.6323 160.131 34.9687H151.741C151.774 36.1811 152.179 37.1083 152.958 37.7478C153.665 38.3194 154.58 38.6059 155.703 38.6059C156.945 38.6059 158.078 38.4128 159.097 38.0253L159.535 39.9181C158.344 40.4245 156.938 40.6765 155.316 40.6765C153.364 40.6765 151.832 40.1163 150.717 38.9973C149.604 37.8782 149.047 36.3755 149.047 34.4904C149.047 32.6398 149.565 31.0987 150.603 29.8696C151.689 28.5575 153.156 27.9014 155.003 27.9014C156.817 27.9014 158.191 28.5575 159.123 29.8696C159.862 30.9119 160.233 32.2011 160.233 33.732ZM157.566 33.0247C157.585 32.2164 157.402 31.5181 157.023 30.9286C156.539 30.1702 155.796 29.7916 154.795 29.7916C153.881 29.7916 153.137 30.1612 152.569 30.903C152.103 31.4926 151.826 32.1998 151.741 33.0234H157.566V33.0247Z" fill="black"/>
</g>
</g>
</svg>
