<svg width="13" height="13" viewBox="0 0 13 13" fill="none" xmlns="http://www.w3.org/2000/svg">
<path opacity="0.2" d="M0.972403 1.90283C0.972403 1.07549 1.65228 0.402832 2.4885 0.402832H6.27874C7.11496 0.402832 7.79483 1.07549 7.79483 1.90283V6.40283H7.98434C9.13563 6.40283 10.069 7.32627 10.069 8.46533V9.21533C10.069 9.52705 10.3224 9.77783 10.6375 9.77783C10.9526 9.77783 11.206 9.52705 11.206 9.21533V5.60596C10.5522 5.43955 10.069 4.85127 10.069 4.15283V2.65283L9.31093 1.90283C9.10246 1.69658 9.10246 1.35908 9.31093 1.15283C9.51939 0.946582 9.86051 0.946582 10.069 1.15283L11.9001 2.96455C12.1844 3.2458 12.3431 3.62783 12.3431 4.02627V4.34033V4.90283V5.65283V9.21533C12.3431 10.1481 11.5803 10.9028 10.6375 10.9028C9.69469 10.9028 8.9319 10.1481 8.9319 9.21533V8.46533C8.9319 7.94736 8.50787 7.52783 7.98434 7.52783H7.79483V10.9028C8.21413 10.9028 8.55288 11.238 8.55288 11.6528C8.55288 12.0677 8.21413 12.4028 7.79483 12.4028H0.972403C0.553108 12.4028 0.214355 12.0677 0.214355 11.6528C0.214355 11.238 0.553108 10.9028 0.972403 10.9028V1.90283ZM2.4885 2.27783V4.52783C2.4885 4.73408 2.65906 4.90283 2.86752 4.90283H5.89971C6.10818 4.90283 6.27874 4.73408 6.27874 4.52783V2.27783C6.27874 2.07158 6.10818 1.90283 5.89971 1.90283H2.86752C2.65906 1.90283 2.4885 2.07158 2.4885 2.27783Z" fill="black"/>
</svg>
