<svg width="15" height="11" viewBox="0 0 15 11" fill="none" xmlns="http://www.w3.org/2000/svg">
<path opacity="0.2" d="M4.26494 1.55362L4.26512 1.5531C4.40276 1.16728 4.77603 0.902832 5.19951 0.902832H6.44276V1.87855C6.44276 2.56783 7.00493 3.1164 7.68853 3.1164C8.37214 3.1164 8.93431 2.56783 8.93431 1.87855V0.902832H10.1776C10.5996 0.902832 10.972 1.16604 11.1123 1.55417C11.1124 1.55436 11.1125 1.55456 11.1125 1.55475L13.8567 9.22046C13.8855 9.30373 13.9005 9.39054 13.9005 9.47386C13.9005 9.88734 13.5602 10.2328 13.128 10.2328H8.93431V9.25712C8.93431 8.56783 8.37214 8.01926 7.68853 8.01926C7.00493 8.01926 6.44276 8.56783 6.44276 9.25712V10.2328H2.24904C1.81864 10.2328 1.47656 9.88675 1.47656 9.47386C1.47656 9.39056 1.49154 9.30377 1.52035 9.22051L4.26494 1.55362ZM8.93431 6.30569V4.82998C8.93431 4.14069 8.37214 3.59212 7.68853 3.59212C7.00493 3.59212 6.44276 4.14069 6.44276 4.82998V6.30569C6.44276 6.99498 7.00493 7.54355 7.68853 7.54355C8.37214 7.54355 8.93431 6.99498 8.93431 6.30569Z" fill="black" stroke="black"/>
</svg>
