<svg width="153" height="156" viewBox="0 0 153 156" fill="none" xmlns="http://www.w3.org/2000/svg">
<g clip-path="url(#clip0_4081_2510)">
<path d="M59.574 3.53833H52.127V74.2783H59.574V3.53833Z" fill="#00CEB4"/>
<path d="M97.4255 74L143.736 151.461C144.932 153.46 143.491 156 141.161 156H110.5L79.4502 104.116L97.4255 74Z" fill="#1B60C8"/>
<path d="M55.8468 62.7371L76.3245 96.99L111.696 156H40.9563H5.29409C2.96339 156 1.52289 153.458 2.72026 151.459L55.8468 62.7371Z" fill="#00EFD1"/>
<path d="M117.142 0C119.414 0 120.862 2.42869 119.78 4.42755L113.813 15.4575C113.162 16.6595 113.407 18.1492 114.407 19.0805L125.921 29.8021C127.915 31.6589 126.601 34.9976 123.876 34.9976H52.127V0H117.142Z" fill="#1B60C8"/>
<path d="M94.5667 8.67277C91.5451 8.23806 88.7729 9.26426 86.8738 11.1634C86.439 11.5982 86.439 12.2538 86.8738 12.6885L89.3038 15.0865C90.2695 13.5615 92.1366 12.6279 94.1605 13.0306C95.9991 13.3726 97.4315 14.8692 97.7735 16.6757C98.2724 19.5726 96.0312 22.0953 93.2269 22.0953C91.9192 22.0953 90.7683 21.5644 89.9274 20.7235L84.5078 15.3359L83.6063 14.463L80.3994 11.2561C78.3114 9.16806 75.2293 8.10979 71.9297 8.82599C68.6587 9.54219 65.9186 12.2502 65.2024 15.5818C63.9874 21.3435 68.4093 26.4175 73.9857 26.4175C76.4443 26.4175 78.6891 25.4518 80.3068 23.8341C80.7415 23.3994 80.7415 22.7438 80.3068 22.3091L77.9088 19.9111C76.9431 21.4361 75.076 22.3697 73.0521 21.967C71.2135 21.625 69.7811 20.1284 69.4391 18.3219C68.9402 15.425 71.153 12.9343 73.9857 12.9343C75.2934 12.9343 76.4443 13.4653 77.2852 14.3062L82.7048 19.6616L83.6063 20.5346L86.8132 23.7094C88.4309 25.3271 90.7042 26.3569 93.2269 26.3569C98.5503 26.3569 102.787 21.7782 102.163 16.3906C101.697 12.5281 98.5183 9.2607 94.5667 8.66921V8.67277Z" fill="white"/>
</g>
<defs>
<clipPath id="clip0_4081_2510">
<rect width="152.651" height="156" fill="white"/>
</clipPath>
</defs>
</svg>
