<svg width="11" height="12" viewBox="0 0 11 12" fill="none" xmlns="http://www.w3.org/2000/svg">
<path opacity="0.2" d="M2.36556 1.09033V1.77783H1.28263C0.684767 1.77783 0.199707 2.23975 0.199707 2.80908V3.84033H10.307V2.80908C10.307 2.23975 9.82195 1.77783 9.22408 1.77783H8.14116V1.09033C8.14116 0.710059 7.81854 0.402832 7.41921 0.402832C7.01988 0.402832 6.69726 0.710059 6.69726 1.09033V1.77783H3.80946V1.09033C3.80946 0.710059 3.48684 0.402832 3.08751 0.402832C2.68818 0.402832 2.36556 0.710059 2.36556 1.09033ZM10.307 4.52783H0.199707V10.3716C0.199707 10.9409 0.684767 11.4028 1.28263 11.4028H9.22408C9.82195 11.4028 10.307 10.9409 10.307 10.3716V4.52783Z" fill="black"/>
</svg>
